<svg xmlns="http://www.w3.org/2000/svg" version="1.1" xmlns:xlink="http://www.w3.org/1999/xlink" xmlns:svgjs="http://svgjs.dev/svgjs" width="1500" height="1500" viewBox="0 0 1500 1500"><rect width="1500" height="1500" fill="#ffffff"></rect><g transform="matrix(0.6666666666666666,0,0,0.6666666666666666,248.8395102040816,242.36774193548388)"><svg viewBox="0 0 245 248" data-background-color="#f8f8f8" preserveAspectRatio="xMidYMid meet" height="1518" width="1500" xmlns="http://www.w3.org/2000/svg" xmlns:xlink="http://www.w3.org/1999/xlink"><g id="tight-bounds" transform="matrix(1,0,0,1,0.2843200000000081,0.4000000000000057)"><svg viewBox="0 0 244.43135999999998 247.2" height="247.2" width="244.43135999999998"><g><svg></svg></g><g><svg viewBox="0 0 244.43135999999998 247.2" height="247.2" width="244.43135999999998"><g transform="matrix(1,0,0,1,0,78.59299303543912)"><svg viewBox="0 0 244.43135999999998 90.01401392912173" height="90.01401392912173" width="244.43135999999998"><g><svg viewBox="0 0 244.43135999999998 90.01401392912173" height="90.01401392912173" width="244.43135999999998"><g><svg viewBox="0 0 244.43135999999998 90.01401392912173" height="90.01401392912173" width="244.43135999999998"><g><svg viewBox="0 0 244.43135999999998 90.01401392912173" height="90.01401392912173" width="244.43135999999998"><g id="textblocktransform"><svg viewBox="0 0 244.43135999999998 90.01401392912173" height="90.01401392912173" width="244.43135999999998" id="textblock"><g><svg viewBox="0 0 244.43135999999998 90.01401392912173" height="90.01401392912173" width="244.43135999999998"><g transform="matrix(1,0,0,1,0,0)"><svg width="244.43135999999998" viewBox="1.3 -35.45 97.35000000000001 35.85" height="90.01401392912173" data-palette-color="#61777f"><path d="M28.35-31.85L25.9-26.9Q24-28.1 22.15-28.8 20.3-29.5 18.65-29.8 17-30.1 15.65-30.1L15.65-30.1Q13.05-30.1 11.5-29.1 9.95-28.1 9.95-26.2L9.95-26.2Q9.95-24.5 10.98-23.43 12-22.35 13.68-21.68 15.35-21 17.38-20.4 19.4-19.8 21.4-19.07 23.4-18.35 25.1-17.2 26.8-16.05 27.8-14.28 28.8-12.5 28.8-9.8L28.8-9.8Q28.8-6.7 27.1-4.42 25.4-2.15 22.43-0.9 19.45 0.35 15.6 0.35L15.6 0.35Q12.85 0.35 10.25-0.38 7.65-1.1 5.38-2.35 3.1-3.6 1.3-5.25L1.3-5.25 3.85-10.1Q5.65-8.45 7.68-7.3 9.7-6.15 11.78-5.55 13.85-4.95 15.7-4.95L15.7-4.95Q18.8-4.95 20.53-6.15 22.25-7.35 22.25-9.5L22.25-9.5Q22.25-11.25 21.23-12.33 20.2-13.4 18.53-14.1 16.85-14.8 14.83-15.35 12.8-15.9 10.78-16.63 8.75-17.35 7.08-18.45 5.4-19.55 4.38-21.3 3.35-23.05 3.35-25.75L3.35-25.75Q3.35-28.7 4.95-30.88 6.55-33.05 9.43-34.25 12.3-35.45 16.1-35.45L16.1-35.45Q19.5-35.45 22.7-34.45 25.9-33.45 28.35-31.85L28.35-31.85ZM35.7-35L49.65-35Q56.25-35 59.87-31.88 63.5-28.75 63.5-23.1L63.5-23.1Q63.5-17.2 59.87-13.93 56.25-10.65 49.65-10.65L49.65-10.65 39-10.65 41.6-13.25 41.6 0 35.7 0 35.7-35ZM39-15.7L49.4-15.7Q53.45-15.7 55.65-17.48 57.85-19.25 57.85-22.95L57.85-22.95Q57.85-26.5 55.65-28.23 53.45-29.95 49.4-29.95L49.4-29.95 39-29.95 41.6-32.55 41.6-13.1 39-15.7ZM98.65-30.4L95.3-26.35Q93.3-28.25 90.62-29.33 87.95-30.4 85.2-30.4L85.2-30.4Q82.5-30.4 80.2-29.4 77.9-28.4 76.15-26.65 74.4-24.9 73.42-22.58 72.45-20.25 72.45-17.55L72.45-17.55Q72.45-14.85 73.42-12.5 74.4-10.15 76.15-8.38 77.9-6.6 80.22-5.6 82.55-4.6 85.25-4.6L85.25-4.6Q87.7-4.6 90.32-5.6 92.95-6.6 95.05-8.3L95.05-8.3 98.45-4.2Q96.7-2.85 94.42-1.8 92.15-0.75 89.7-0.18 87.25 0.4 84.84 0.4L84.84 0.4Q80.95 0.4 77.62-0.98 74.3-2.35 71.77-4.8 69.25-7.25 67.84-10.53 66.45-13.8 66.45-17.55L66.45-17.55Q66.45-21.3 67.87-24.53 69.3-27.75 71.84-30.2 74.4-32.65 77.82-34 81.25-35.35 85.2-35.35L85.2-35.35Q87.7-35.35 90.12-34.75 92.55-34.15 94.75-33.05 96.95-31.95 98.65-30.4L98.65-30.4ZM93.3-4.2L93.3-17.1 98.45-17.1 98.45-4.2 93.3-4.2Z" opacity="1" transform="matrix(1,0,0,1,0,0)" fill="#000000" class="wordmark-text-0" data-fill-palette-color="primary" id="text-0"></path></svg></g></svg></g></svg></g></svg></g><g></g></svg></g></svg></g></svg></g><path d="M0 72.593L0 1 244.431 1 244.431 72.593 236.314 72.593 236.314 9.118 8.118 9.118 8.118 72.593 0 72.593M0 174.607L0 246.2 244.431 246.2 244.431 174.607 236.314 174.607 236.314 238.082 8.118 238.082 8.118 174.607 0 174.607" fill="#000000" stroke="transparent" data-fill-palette-color="tertiary"></path></svg></g><defs></defs></svg><rect width="244.43135999999998" height="247.2" fill="none" stroke="none" visibility="hidden"></rect></g></svg></g></svg>